<svg data-name="Group 4" width="105.987" height="95.522" viewBox="0 0 105.987 95.522">
  <g id="Group_1" data-name="Group 1" transform="translate(9.915)">
    <path id="Path_1" data-name="Path 1" d="M1733.4,157.574v58.511a1.549,1.549,0,0,1-1.285,1.527,75.946,75.946,0,0,0-30.338,12.445.141.141,0,0,0,.139.245,80.567,80.567,0,0,1,25.955-7.046,78.762,78.762,0,0,1,9.253-.336,1.4,1.4,0,0,0,1.341-1.342V158.171c-.338-.109-.7-.21-1.076-.3A13.342,13.342,0,0,0,1733.4,157.574Z" transform="translate(-1652.311 -146.452)" fill="#2bd5ef"/>
    <path id="Path_2" data-name="Path 2" d="M1728.544,146.813v62.762a2.532,2.532,0,0,1-.568,1.6,2.852,2.852,0,0,1-1.541.926l-.048.015q-2.321.848-4.707,1.848c-7.689,3.233-14.841,8.047-20.57,12.1a.642.642,0,0,1-.89-.9,64.733,64.733,0,0,1,11.039-11.448,55.862,55.862,0,0,1,10.412-6.649,2.261,2.261,0,0,0,1.26-2.011l.4-53.445a.258.258,0,0,0-.337-.265q-1.517.5-3.07,1.091a70.2,70.2,0,0,0-13.523,6.937,11,11,0,0,0-.255-1.628q2.154-1.671,4.656-3.415a79.157,79.157,0,0,1,15.581-8.454.441.441,0,0,1,.059-.021,1.98,1.98,0,0,1,1.419.137,1.874,1.874,0,0,1,.539.428A.585.585,0,0,1,1728.544,146.813Z" transform="translate(-1652.219 -145.787)" fill="#29c9e2"/>
    <path id="Path_3" data-name="Path 3" d="M1654.413,157.574v58.511a1.548,1.548,0,0,0,1.284,1.527,75.957,75.957,0,0,1,30.339,12.445.141.141,0,0,1-.139.245,80.573,80.573,0,0,0-25.955-7.046,78.786,78.786,0,0,0-9.254-.336,1.4,1.4,0,0,1-1.341-1.342V158.171c.339-.109.7-.21,1.077-.3A13.34,13.34,0,0,1,1654.413,157.574Z" transform="translate(-1649.348 -146.452)" fill="#2bd5ef"/>
    <path id="Path_4" data-name="Path 4" d="M1687.2,226.073c-5.73-4.057-12.881-8.871-20.57-12.1q-2.385-1-4.707-1.848l-.05-.015a2.856,2.856,0,0,1-1.54-.926,2.532,2.532,0,0,1-.568-1.6V146.813a.591.591,0,0,1,.146-.388,1.89,1.89,0,0,1,.539-.428,1.983,1.983,0,0,1,1.42-.137.5.5,0,0,1,.059.021,79.159,79.159,0,0,1,15.58,8.454q2.5,1.749,4.656,3.415a10.965,10.965,0,0,0-.254,1.628,70.267,70.267,0,0,0-13.524-6.937q-1.551-.594-3.07-1.091a.258.258,0,0,0-.336.265l.4,53.445a2.259,2.259,0,0,0,1.259,2.011,55.862,55.862,0,0,1,10.412,6.649,64.7,64.7,0,0,1,11.04,11.448A.642.642,0,0,1,1687.2,226.073Z" transform="translate(-1649.938 -145.787)" fill="#29c9e2"/>
  </g>
  <g id="Group_3" data-name="Group 3" transform="translate(0 7.223)">
    <path id="Rectangle_4" data-name="Rectangle 4" d="M2.729,0H46.39a2.726,2.726,0,0,1,2.726,2.726v0A2.726,2.726,0,0,1,46.39,5.456H2.726A2.726,2.726,0,0,1,0,2.729v0A2.729,2.729,0,0,1,2.729,0Z" transform="translate(28.39 82.844)" fill="#002c49"/>
    <path id="Path_5" data-name="Path 5" d="M1743.658,168a.272.272,0,0,0-.276.273V227.2a1.961,1.961,0,0,1-.435,1.27,2.129,2.129,0,0,1-1.854.655l-.034,0h-19.79a.247.247,0,0,0-.046,0c-1.91.325-3.924.739-6.026,1.265a79.977,79.977,0,0,0-8.983,2.827.273.273,0,0,0,.1.527h40.142a2.177,2.177,0,0,0,1.459-.534,2.2,2.2,0,0,0,.717-1.527V169.449a.266.266,0,0,0-.035-.134,2.073,2.073,0,0,0-.977-.645A11.992,11.992,0,0,0,1743.658,168Z" transform="translate(-1642.641 -154.266)" fill="#002c49"/>
    <path id="Path_6" data-name="Path 6" d="M1643.808,168a.273.273,0,0,1,.277.273V227.2a1.954,1.954,0,0,0,.435,1.27,2.127,2.127,0,0,0,1.853.655l.035,0h19.79a.256.256,0,0,1,.046,0c1.909.325,3.924.739,6.025,1.265a79.916,79.916,0,0,1,8.983,2.827.273.273,0,0,1-.1.527h-40.141a2.127,2.127,0,0,1-2.176-2.061V169.449a.265.265,0,0,1,.034-.134,2.077,2.077,0,0,1,.978-.645A11.984,11.984,0,0,1,1643.808,168Z" transform="translate(-1638.839 -154.266)" fill="#002c49"/>
    <g id="Group_2" data-name="Group 2" transform="translate(34.036)">
      <path id="Path_7" data-name="Path 7" d="M1712.74,166.62v35.834a1.688,1.688,0,0,1-.689,1.36l-5.594,4.106a1.687,1.687,0,0,1-2.685-1.359V184.408a1.687,1.687,0,0,0-2.712-1.34l-6.206,4.749a1.69,1.69,0,0,1-2.051,0l-6.206-4.749a1.687,1.687,0,0,0-2.712,1.34v22.153a1.687,1.687,0,0,1-2.685,1.359l-5.594-4.106a1.688,1.688,0,0,1-.689-1.36V166.62a1.687,1.687,0,0,1,2.7-1.349l15.2,11.406a1.687,1.687,0,0,0,2.025,0l15.2-11.406A1.687,1.687,0,0,1,1712.74,166.62Z" transform="translate(-1674.916 -154.093)" fill="#002c49"/>
      <ellipse id="Ellipse_1" data-name="Ellipse 1" cx="7.274" cy="7.286" rx="7.274" ry="7.286" transform="translate(11.683)" fill="#002c49"/>
    </g>
  </g>
</svg>
