<svg width="30.05" height="30.05" viewBox="0 0 30.05 30.05">
    <path d="M270.425,70.977h-1.57a11.331,11.331,0,0,0-1.11-2.66l1.11-1.11a2.438,2.438,0,0,0,0-3.46l-.78-.79a2.457,2.457,0,0,0-3.46,0l-1.111,1.11h0a11.716,11.716,0,0,0-2.659-1.1V61.4a2.445,2.445,0,0,0-2.45-2.44h-1.11a2.437,2.437,0,0,0-2.44,2.44v1.57a11.359,11.359,0,0,0-2.67,1.1h0l-1.11-1.11a2.444,2.444,0,0,0-3.45,0l-.79.79a2.438,2.438,0,0,0,0,3.46l1.11,1.11a11.331,11.331,0,0,0-1.11,2.66h-1.56a2.445,2.445,0,0,0-2.45,2.44v1.12a2.445,2.445,0,0,0,2.45,2.44h1.56a11.4,11.4,0,0,0,1.11,2.67h0l-1.11,1.11a2.426,2.426,0,0,0,0,3.45l.79.79a2.444,2.444,0,0,0,3.45,0l1.11-1.11h0a11.359,11.359,0,0,0,2.67,1.1v1.57a2.445,2.445,0,0,0,2.44,2.45h1.11a2.454,2.454,0,0,0,2.45-2.45v-1.57a11.716,11.716,0,0,0,2.659-1.1L264.615,85a2.457,2.457,0,0,0,3.46,0l.78-.79a2.426,2.426,0,0,0,0-3.45l-1.11-1.11h0a11.4,11.4,0,0,0,1.11-2.67h1.57a2.437,2.437,0,0,0,2.44-2.44v-1.12A2.437,2.437,0,0,0,270.425,70.977Zm-6.81,3a5.65,5.65,0,0,1-.17,1.37,5.832,5.832,0,0,1-2.6,3.56,5.052,5.052,0,0,1-1.64.68,5.568,5.568,0,0,1-1.36.17,5.65,5.65,0,0,1-1.37-.17,5.8,5.8,0,0,1-4.24-4.24,5.65,5.65,0,0,1-.17-1.37,5.568,5.568,0,0,1,.17-1.36,5.271,5.271,0,0,1,.68-1.64,5.8,5.8,0,0,1,3.56-2.61,5.65,5.65,0,0,1,1.37-.17,5.568,5.568,0,0,1,1.36.17,5.052,5.052,0,0,1,1.64.68,5.552,5.552,0,0,1,1.92,1.93,5.271,5.271,0,0,1,.68,1.64A5.569,5.569,0,0,1,263.615,73.977Z" transform="translate(-242.815 -58.957)" fill="#58899b"/>
</svg>
